<svg xmlns="http://www.w3.org/2000/svg" xmlns:xlink="http://www.w3.org/1999/xlink" width="500" zoomAndPan="magnify" viewBox="0 0 375 374.999991" height="500" preserveAspectRatio="xMidYMid meet" version="1.0"><defs><g/><clipPath id="id1"><path d="M 119 201 L 252 201 L 252 234.089844 L 119 234.089844 Z M 119 201 " clip-rule="nonzero"/></clipPath><clipPath id="id2"><path d="M 86.554688 141 L 120 141 L 120 159 L 86.554688 159 Z M 86.554688 141 " clip-rule="nonzero"/></clipPath><clipPath id="id3"><path d="M 255 141 L 288.304688 141 L 288.304688 158 L 255 158 Z M 255 141 " clip-rule="nonzero"/></clipPath></defs><path fill="#ad91ff" d="M 208.578125 179.597656 L 204.332031 188.453125 L 199.269531 175.917969 L 193.871094 192.867188 L 188.71875 173.089844 L 183.890625 195.125 L 176.886719 172.734375 L 172.113281 190.945312 L 165.652344 176.175781 L 164.203125 179.585938 L 137.40625 179.585938 L 137.40625 184.992188 C 137.40625 185.878906 137.492188 186.757812 137.664062 187.628906 C 137.835938 188.5 138.09375 189.34375 138.433594 190.164062 C 138.773438 190.984375 139.191406 191.765625 139.683594 192.503906 C 140.175781 193.242188 140.738281 193.921875 141.363281 194.550781 C 141.992188 195.179688 142.675781 195.738281 143.414062 196.230469 C 144.152344 196.726562 144.933594 197.140625 145.753906 197.480469 C 146.574219 197.820312 147.417969 198.078125 148.289062 198.25 C 149.160156 198.421875 150.039062 198.511719 150.925781 198.511719 L 220.808594 198.511719 C 221.699219 198.511719 222.578125 198.421875 223.449219 198.25 C 224.320312 198.078125 225.164062 197.820312 225.984375 197.480469 C 226.804688 197.140625 227.582031 196.726562 228.320312 196.230469 C 229.058594 195.738281 229.742188 195.179688 230.371094 194.550781 C 230.996094 193.921875 231.558594 193.238281 232.050781 192.503906 C 232.542969 191.765625 232.960938 190.984375 233.300781 190.164062 C 233.640625 189.34375 233.894531 188.5 234.066406 187.628906 C 234.242188 186.757812 234.328125 185.878906 234.328125 184.992188 L 234.328125 179.585938 Z M 208.578125 179.597656 " fill-opacity="1" fill-rule="nonzero"/><path fill="#809f9e" d="M 186.769531 97.742188 C 185.816406 97.738281 184.898438 97.5625 184.011719 97.203125 L 184.011719 109.410156 L 189.535156 109.410156 L 189.535156 97.203125 C 188.648438 97.5625 187.726562 97.742188 186.769531 97.742188 Z M 186.769531 97.742188 " fill-opacity="1" fill-rule="nonzero"/><path fill="#ad91ff" d="M 187.960938 83.011719 C 188.441406 83.089844 188.910156 83.214844 189.363281 83.386719 C 189.820312 83.554688 190.257812 83.769531 190.671875 84.027344 C 191.085938 84.28125 191.46875 84.578125 191.824219 84.90625 C 192.183594 85.238281 192.503906 85.605469 192.785156 86 C 193.070312 86.394531 193.3125 86.8125 193.515625 87.253906 C 193.71875 87.699219 193.875 88.15625 193.988281 88.628906 C 194.097656 89.105469 194.164062 89.585938 194.179688 90.070312 C 194.195312 90.558594 194.164062 91.042969 194.085938 91.523438 C 194.007812 92.003906 193.886719 92.46875 193.714844 92.925781 C 193.542969 93.382812 193.332031 93.816406 193.074219 94.230469 C 192.816406 94.644531 192.523438 95.03125 192.191406 95.386719 C 191.859375 95.742188 191.496094 96.0625 191.101562 96.347656 C 190.707031 96.628906 190.285156 96.875 189.84375 97.074219 C 189.398438 97.277344 188.941406 97.433594 188.46875 97.546875 C 187.992188 97.65625 187.511719 97.722656 187.027344 97.738281 C 186.539062 97.753906 186.054688 97.726562 185.574219 97.648438 C 185.09375 97.570312 184.625 97.445312 184.171875 97.273438 C 183.714844 97.101562 183.277344 96.890625 182.863281 96.632812 C 182.449219 96.378906 182.066406 96.082031 181.710938 95.75 C 181.351562 95.417969 181.03125 95.054688 180.75 94.660156 C 180.464844 94.265625 180.21875 93.847656 180.019531 93.402344 C 179.816406 92.960938 179.660156 92.503906 179.546875 92.027344 C 179.4375 91.554688 179.371094 91.074219 179.355469 90.589844 C 179.339844 90.101562 179.367188 89.617188 179.449219 89.136719 C 179.527344 88.65625 179.648438 88.191406 179.820312 87.734375 C 179.992188 87.277344 180.203125 86.84375 180.460938 86.429688 C 180.71875 86.015625 181.011719 85.628906 181.34375 85.273438 C 181.675781 84.917969 182.039062 84.597656 182.433594 84.3125 C 182.828125 84.027344 183.25 83.785156 183.691406 83.585938 C 184.136719 83.382812 184.59375 83.226562 185.066406 83.113281 C 185.542969 83.003906 186.023438 82.9375 186.507812 82.921875 C 186.996094 82.902344 187.480469 82.933594 187.960938 83.011719 Z M 187.960938 83.011719 " fill-opacity="1" fill-rule="nonzero"/><path fill="#809f9e" d="M 158.609375 198.523438 L 213.128906 198.523438 L 213.128906 201.035156 L 158.609375 201.035156 Z M 158.609375 198.523438 " fill-opacity="1" fill-rule="nonzero"/><g clip-path="url(#id1)"><path fill="#ad91ff" d="M 251.945312 234.050781 L 251.945312 221.9375 C 251.941406 221.253906 251.90625 220.574219 251.835938 219.894531 C 251.765625 219.214844 251.664062 218.539062 251.527344 217.867188 C 251.390625 217.199219 251.222656 216.539062 251.023438 215.882812 C 250.824219 215.230469 250.589844 214.589844 250.328125 213.957031 C 250.066406 213.328125 249.773438 212.710938 249.449219 212.109375 C 249.125 211.503906 248.773438 210.921875 248.390625 210.351562 C 248.011719 209.785156 247.601562 209.238281 247.167969 208.710938 C 246.734375 208.183594 246.273438 207.675781 245.792969 207.195312 C 245.308594 206.710938 244.800781 206.253906 244.273438 205.820312 C 243.742188 205.386719 243.195312 204.980469 242.625 204.597656 C 242.058594 204.21875 241.472656 203.867188 240.871094 203.546875 C 240.265625 203.222656 239.648438 202.929688 239.015625 202.667969 C 238.386719 202.40625 237.742188 202.175781 237.089844 201.976562 C 236.433594 201.777344 235.773438 201.609375 235.101562 201.476562 C 234.433594 201.339844 233.757812 201.238281 233.078125 201.171875 C 232.394531 201.101562 231.714844 201.066406 231.03125 201.066406 L 140.707031 201.066406 C 140.023438 201.066406 139.34375 201.105469 138.664062 201.175781 C 137.984375 201.242188 137.308594 201.347656 136.640625 201.480469 C 135.96875 201.617188 135.308594 201.785156 134.65625 201.984375 C 134.003906 202.183594 133.359375 202.414062 132.730469 202.679688 C 132.097656 202.941406 131.484375 203.234375 130.882812 203.554688 C 130.277344 203.878906 129.695312 204.230469 129.125 204.609375 C 128.558594 204.992188 128.011719 205.398438 127.484375 205.832031 C 126.957031 206.265625 126.449219 206.722656 125.96875 207.203125 C 125.484375 207.6875 125.027344 208.191406 124.589844 208.71875 C 124.15625 209.25 123.75 209.796875 123.371094 210.363281 C 122.992188 210.929688 122.640625 211.515625 122.316406 212.117188 C 121.992188 212.71875 121.699219 213.335938 121.4375 213.964844 C 121.175781 214.59375 120.945312 215.238281 120.742188 215.890625 C 120.542969 216.542969 120.375 217.203125 120.242188 217.871094 C 120.105469 218.542969 120.003906 219.214844 119.933594 219.894531 C 119.863281 220.574219 119.828125 221.257812 119.824219 221.9375 L 119.824219 234.050781 Z M 251.945312 234.050781 " fill-opacity="1" fill-rule="nonzero"/></g><path fill="#ad91ff" d="M 238.59375 139.691406 L 236.359375 139.027344 L 234.332031 157.515625 L 234.332031 133.515625 C 234.332031 132.796875 234.296875 132.082031 234.226562 131.363281 C 234.15625 130.648438 234.050781 129.9375 233.914062 129.234375 C 233.773438 128.527344 233.597656 127.832031 233.386719 127.140625 C 233.179688 126.453125 232.9375 125.777344 232.664062 125.113281 C 232.386719 124.449219 232.078125 123.796875 231.742188 123.164062 C 231.402344 122.53125 231.03125 121.914062 230.632812 121.316406 C 230.234375 120.71875 229.804688 120.140625 229.347656 119.582031 C 228.890625 119.027344 228.410156 118.496094 227.898438 117.988281 C 227.390625 117.476562 226.859375 116.996094 226.300781 116.539062 C 225.746094 116.082031 225.167969 115.65625 224.570312 115.253906 C 223.972656 114.855469 223.355469 114.488281 222.71875 114.148438 C 222.085938 113.808594 221.4375 113.5 220.769531 113.226562 C 220.105469 112.949219 219.429688 112.710938 218.742188 112.5 C 218.050781 112.292969 217.355469 112.117188 216.648438 111.976562 C 215.941406 111.835938 215.230469 111.730469 214.515625 111.660156 C 213.800781 111.589844 213.082031 111.554688 212.363281 111.554688 L 159.363281 111.554688 C 158.644531 111.554688 157.929688 111.59375 157.21875 111.664062 C 156.503906 111.734375 155.796875 111.835938 155.09375 111.976562 C 154.390625 112.117188 153.695312 112.289062 153.011719 112.5 C 152.324219 112.707031 151.648438 112.945312 150.988281 113.21875 C 150.324219 113.492188 149.675781 113.800781 149.046875 114.136719 C 148.414062 114.472656 147.796875 114.839844 147.203125 115.238281 C 146.605469 115.632812 146.027344 116.058594 145.472656 116.511719 C 144.917969 116.964844 144.386719 117.445312 143.878906 117.949219 C 143.371094 118.457031 142.890625 118.984375 142.433594 119.539062 C 141.976562 120.089844 141.550781 120.664062 141.148438 121.257812 C 140.75 121.851562 140.378906 122.464844 140.039062 123.097656 C 139.699219 123.726562 139.390625 124.371094 139.113281 125.035156 C 138.835938 125.695312 138.59375 126.367188 138.382812 127.050781 C 138.171875 127.738281 137.996094 128.429688 137.851562 129.132812 C 137.707031 129.832031 137.601562 130.542969 137.527344 131.253906 C 137.453125 131.964844 137.414062 132.679688 137.410156 133.398438 L 137.410156 157.515625 L 135.472656 139.804688 L 133.144531 140.476562 C 130.695312 141.191406 128.988281 143.796875 128.988281 146.800781 L 128.988281 164.214844 C 128.988281 167.207031 130.710938 169.8125 133.15625 170.539062 L 137.417969 171.804688 L 137.417969 175.636719 L 161.558594 175.636719 L 165.617188 166.097656 L 171.171875 178.800781 L 176.550781 158.1875 L 183.203125 179.484375 L 188.371094 155.871094 L 194.246094 178.425781 L 198.800781 164.113281 L 204.636719 178.527344 L 206.046875 175.585938 L 234.328125 175.585938 L 234.328125 171.753906 L 238.59375 170.488281 C 241.042969 169.753906 242.761719 167.085938 242.761719 164.019531 L 242.761719 146.167969 C 242.761719 143.085938 241.042969 140.417969 238.59375 139.691406 Z M 164.171875 154.238281 C 163.253906 154.238281 162.347656 154.148438 161.449219 153.972656 C 160.546875 153.792969 159.675781 153.527344 158.828125 153.175781 C 157.980469 152.828125 157.175781 152.398438 156.414062 151.886719 C 155.652344 151.378906 154.945312 150.800781 154.296875 150.152344 C 153.648438 149.503906 153.070312 148.796875 152.558594 148.035156 C 152.050781 147.273438 151.621094 146.46875 151.269531 145.621094 C 150.917969 144.773438 150.652344 143.902344 150.476562 143.003906 C 150.296875 142.105469 150.207031 141.195312 150.207031 140.28125 C 150.207031 139.363281 150.296875 138.453125 150.476562 137.554688 C 150.652344 136.65625 150.917969 135.78125 151.269531 134.9375 C 151.621094 134.089844 152.050781 133.285156 152.5625 132.523438 C 153.070312 131.761719 153.652344 131.054688 154.300781 130.40625 C 154.949219 129.757812 155.652344 129.179688 156.417969 128.671875 C 157.179688 128.160156 157.984375 127.730469 158.832031 127.378906 C 159.679688 127.03125 160.550781 126.765625 161.453125 126.585938 C 162.351562 126.410156 163.257812 126.320312 164.175781 126.320312 C 165.09375 126.320312 166.003906 126.410156 166.902344 126.589844 C 167.800781 126.769531 168.675781 127.03125 169.523438 127.382812 C 170.367188 127.734375 171.171875 128.164062 171.9375 128.675781 C 172.699219 129.183594 173.402344 129.761719 174.050781 130.410156 C 174.699219 131.058594 175.277344 131.765625 175.789062 132.527344 C 176.296875 133.289062 176.726562 134.09375 177.078125 134.941406 C 177.429688 135.789062 177.691406 136.664062 177.871094 137.5625 C 178.050781 138.460938 178.140625 139.367188 178.140625 140.285156 C 178.140625 141.203125 178.050781 142.109375 177.871094 143.007812 C 177.691406 143.90625 177.425781 144.78125 177.074219 145.628906 C 176.726562 146.476562 176.292969 147.277344 175.785156 148.042969 C 175.277344 148.804688 174.695312 149.507812 174.046875 150.15625 C 173.398438 150.804688 172.695312 151.382812 171.933594 151.894531 C 171.167969 152.402344 170.363281 152.832031 169.515625 153.183594 C 168.671875 153.535156 167.796875 153.796875 166.898438 153.976562 C 165.996094 154.15625 165.089844 154.246094 164.171875 154.246094 Z M 207.292969 154.511719 C 206.359375 154.511719 205.433594 154.421875 204.515625 154.238281 C 203.597656 154.054688 202.707031 153.785156 201.84375 153.429688 C 200.980469 153.070312 200.160156 152.632812 199.382812 152.113281 C 198.605469 151.59375 197.886719 151.003906 197.226562 150.34375 C 196.5625 149.683594 195.972656 148.964844 195.453125 148.1875 C 194.933594 147.410156 194.496094 146.589844 194.136719 145.726562 C 193.78125 144.863281 193.511719 143.972656 193.328125 143.054688 C 193.144531 142.140625 193.054688 141.214844 193.054688 140.28125 C 193.054688 139.34375 193.144531 138.417969 193.328125 137.503906 C 193.511719 136.585938 193.78125 135.695312 194.136719 134.832031 C 194.496094 133.96875 194.933594 133.148438 195.453125 132.371094 C 195.972656 131.59375 196.5625 130.875 197.226562 130.214844 C 197.886719 129.554688 198.605469 128.964844 199.382812 128.445312 C 200.160156 127.925781 200.980469 127.488281 201.84375 127.128906 C 202.707031 126.773438 203.597656 126.503906 204.515625 126.320312 C 205.433594 126.136719 206.359375 126.046875 207.292969 126.046875 C 208.226562 126.046875 209.152344 126.136719 210.070312 126.320312 C 210.988281 126.503906 211.878906 126.773438 212.742188 127.128906 C 213.605469 127.488281 214.425781 127.925781 215.203125 128.445312 C 215.980469 128.964844 216.699219 129.554688 217.359375 130.214844 C 218.023438 130.875 218.613281 131.59375 219.132812 132.371094 C 219.652344 133.148438 220.089844 133.96875 220.449219 134.832031 C 220.804688 135.695312 221.074219 136.585938 221.257812 137.503906 C 221.441406 138.417969 221.53125 139.34375 221.53125 140.28125 C 221.53125 141.214844 221.441406 142.140625 221.257812 143.058594 C 221.078125 143.972656 220.808594 144.863281 220.449219 145.726562 C 220.089844 146.589844 219.652344 147.410156 219.132812 148.1875 C 218.613281 148.964844 218.023438 149.6875 217.363281 150.347656 C 216.703125 151.007812 215.984375 151.597656 215.207031 152.117188 C 214.429688 152.636719 213.605469 153.074219 212.742188 153.433594 C 211.878906 153.792969 210.988281 154.0625 210.070312 154.242188 C 209.152344 154.425781 208.226562 154.515625 207.292969 154.515625 Z M 207.292969 154.511719 " fill-opacity="1" fill-rule="nonzero"/><path fill="#ffffff" d="M 164.171875 130.90625 C 163.554688 130.90625 162.945312 130.964844 162.339844 131.085938 C 161.738281 131.207031 161.152344 131.382812 160.582031 131.621094 C 160.011719 131.855469 159.472656 132.144531 158.957031 132.484375 C 158.445312 132.828125 157.972656 133.21875 157.535156 133.652344 C 157.101562 134.089844 156.710938 134.5625 156.371094 135.074219 C 156.027344 135.585938 155.738281 136.125 155.503906 136.695312 C 155.265625 137.265625 155.089844 137.851562 154.96875 138.457031 C 154.847656 139.058594 154.789062 139.667969 154.789062 140.285156 C 154.789062 140.902344 154.847656 141.511719 154.96875 142.117188 C 155.089844 142.71875 155.265625 143.304688 155.503906 143.875 C 155.738281 144.445312 156.027344 144.984375 156.371094 145.496094 C 156.710938 146.007812 157.101562 146.484375 157.535156 146.917969 C 157.972656 147.355469 158.445312 147.742188 158.957031 148.085938 C 159.472656 148.425781 160.011719 148.714844 160.582031 148.953125 C 161.152344 149.1875 161.738281 149.367188 162.339844 149.484375 C 162.945312 149.605469 163.554688 149.667969 164.171875 149.667969 C 164.789062 149.667969 165.398438 149.605469 166.003906 149.484375 C 166.609375 149.367188 167.195312 149.1875 167.765625 148.953125 C 168.332031 148.714844 168.875 148.425781 169.386719 148.085938 C 169.898438 147.742188 170.371094 147.355469 170.808594 146.917969 C 171.246094 146.484375 171.632812 146.007812 171.976562 145.496094 C 172.316406 144.984375 172.605469 144.445312 172.84375 143.875 C 173.078125 143.304688 173.257812 142.71875 173.378906 142.117188 C 173.496094 141.511719 173.558594 140.902344 173.558594 140.285156 C 173.558594 139.667969 173.496094 139.058594 173.375 138.457031 C 173.253906 137.851562 173.078125 137.265625 172.839844 136.695312 C 172.605469 136.128906 172.316406 135.585938 171.972656 135.074219 C 171.632812 134.5625 171.242188 134.089844 170.808594 133.65625 C 170.371094 133.21875 169.898438 132.832031 169.386719 132.488281 C 168.871094 132.144531 168.332031 131.855469 167.761719 131.621094 C 167.195312 131.386719 166.605469 131.207031 166.003906 131.085938 C 165.398438 130.964844 164.789062 130.90625 164.171875 130.90625 Z M 165 142.859375 C 164.699219 142.859375 164.398438 142.832031 164.105469 142.773438 C 163.808594 142.710938 163.519531 142.625 163.242188 142.511719 C 162.960938 142.394531 162.695312 142.253906 162.445312 142.085938 C 162.195312 141.917969 161.960938 141.726562 161.75 141.511719 C 161.535156 141.300781 161.34375 141.066406 161.175781 140.816406 C 161.007812 140.566406 160.867188 140.300781 160.75 140.019531 C 160.636719 139.742188 160.546875 139.453125 160.488281 139.160156 C 160.429688 138.863281 160.402344 138.5625 160.402344 138.261719 C 160.402344 137.960938 160.429688 137.660156 160.488281 137.363281 C 160.546875 137.066406 160.636719 136.78125 160.75 136.5 C 160.867188 136.222656 161.007812 135.957031 161.175781 135.707031 C 161.34375 135.457031 161.535156 135.222656 161.75 135.011719 C 161.960938 134.796875 162.195312 134.605469 162.445312 134.4375 C 162.695312 134.269531 162.960938 134.128906 163.242188 134.011719 C 163.519531 133.898438 163.808594 133.808594 164.105469 133.75 C 164.398438 133.691406 164.699219 133.664062 165 133.664062 C 165.304688 133.664062 165.601562 133.691406 165.898438 133.75 C 166.195312 133.808594 166.484375 133.898438 166.761719 134.011719 C 167.042969 134.128906 167.304688 134.269531 167.558594 134.4375 C 167.808594 134.605469 168.042969 134.796875 168.253906 135.011719 C 168.46875 135.222656 168.660156 135.457031 168.828125 135.707031 C 168.996094 135.957031 169.136719 136.222656 169.253906 136.5 C 169.367188 136.78125 169.453125 137.066406 169.515625 137.363281 C 169.574219 137.660156 169.601562 137.960938 169.601562 138.261719 C 169.601562 138.5625 169.574219 138.863281 169.515625 139.160156 C 169.453125 139.453125 169.367188 139.742188 169.253906 140.019531 C 169.136719 140.300781 168.996094 140.566406 168.828125 140.816406 C 168.660156 141.066406 168.46875 141.300781 168.253906 141.511719 C 168.042969 141.726562 167.808594 141.917969 167.558594 142.085938 C 167.304688 142.253906 167.042969 142.394531 166.761719 142.511719 C 166.484375 142.625 166.195312 142.710938 165.898438 142.773438 C 165.601562 142.832031 165.304688 142.859375 165 142.859375 Z M 165 142.859375 " fill-opacity="1" fill-rule="nonzero"/><path fill="#ffffff" d="M 207.292969 130.722656 C 206.664062 130.722656 206.042969 130.78125 205.425781 130.90625 C 204.808594 131.027344 204.210938 131.210938 203.632812 131.449219 C 203.050781 131.691406 202.5 131.984375 201.976562 132.332031 C 201.453125 132.683594 200.972656 133.078125 200.527344 133.523438 C 200.082031 133.96875 199.6875 134.449219 199.335938 134.972656 C 198.988281 135.496094 198.695312 136.046875 198.453125 136.625 C 198.210938 137.207031 198.03125 137.804688 197.910156 138.417969 C 197.785156 139.035156 197.726562 139.65625 197.726562 140.285156 C 197.726562 140.914062 197.785156 141.535156 197.910156 142.152344 C 198.03125 142.765625 198.210938 143.367188 198.453125 143.945312 C 198.695312 144.527344 198.988281 145.078125 199.335938 145.597656 C 199.6875 146.121094 200.082031 146.605469 200.527344 147.046875 C 200.972656 147.492188 201.453125 147.890625 201.976562 148.238281 C 202.5 148.585938 203.050781 148.882812 203.632812 149.121094 C 204.210938 149.363281 204.808594 149.542969 205.425781 149.664062 C 206.042969 149.789062 206.664062 149.847656 207.292969 149.847656 C 207.921875 149.847656 208.542969 149.789062 209.160156 149.664062 C 209.777344 149.542969 210.375 149.363281 210.953125 149.121094 C 211.535156 148.882812 212.085938 148.585938 212.609375 148.238281 C 213.132812 147.890625 213.613281 147.492188 214.058594 147.046875 C 214.503906 146.605469 214.898438 146.121094 215.25 145.597656 C 215.597656 145.078125 215.890625 144.527344 216.132812 143.945312 C 216.375 143.367188 216.554688 142.765625 216.675781 142.152344 C 216.800781 141.535156 216.859375 140.914062 216.859375 140.285156 C 216.859375 139.65625 216.800781 139.035156 216.675781 138.417969 C 216.554688 137.804688 216.375 137.207031 216.132812 136.625 C 215.890625 136.046875 215.597656 135.496094 215.25 134.972656 C 214.898438 134.449219 214.503906 133.96875 214.058594 133.523438 C 213.613281 133.078125 213.132812 132.683594 212.609375 132.332031 C 212.085938 131.984375 211.535156 131.691406 210.953125 131.449219 C 210.375 131.210938 209.777344 131.027344 209.160156 130.90625 C 208.542969 130.78125 207.921875 130.722656 207.292969 130.722656 Z M 208.140625 142.910156 C 207.832031 142.910156 207.527344 142.878906 207.226562 142.820312 C 206.925781 142.757812 206.632812 142.667969 206.347656 142.550781 C 206.0625 142.433594 205.792969 142.289062 205.539062 142.117188 C 205.28125 141.945312 205.046875 141.75 204.828125 141.535156 C 204.609375 141.316406 204.417969 141.078125 204.246094 140.824219 C 204.074219 140.566406 203.929688 140.296875 203.8125 140.011719 C 203.695312 139.726562 203.605469 139.433594 203.546875 139.132812 C 203.488281 138.832031 203.457031 138.527344 203.457031 138.21875 C 203.457031 137.910156 203.488281 137.605469 203.550781 137.304688 C 203.609375 137.003906 203.699219 136.710938 203.816406 136.425781 C 203.933594 136.140625 204.078125 135.871094 204.25 135.617188 C 204.421875 135.359375 204.617188 135.125 204.832031 134.90625 C 205.050781 134.691406 205.289062 134.496094 205.542969 134.324219 C 205.800781 134.152344 206.070312 134.011719 206.355469 133.890625 C 206.640625 133.773438 206.933594 133.6875 207.234375 133.625 C 207.535156 133.566406 207.839844 133.535156 208.148438 133.535156 C 208.457031 133.535156 208.761719 133.566406 209.0625 133.628906 C 209.367188 133.6875 209.660156 133.777344 209.941406 133.894531 C 210.226562 134.011719 210.496094 134.15625 210.753906 134.328125 C 211.007812 134.5 211.246094 134.691406 211.464844 134.910156 C 211.679688 135.128906 211.875 135.363281 212.046875 135.621094 C 212.21875 135.875 212.363281 136.144531 212.480469 136.429688 C 212.597656 136.714844 212.6875 137.007812 212.746094 137.308594 C 212.804688 137.609375 212.835938 137.914062 212.835938 138.222656 C 212.835938 138.53125 212.804688 138.835938 212.746094 139.140625 C 212.6875 139.441406 212.597656 139.734375 212.480469 140.019531 C 212.359375 140.304688 212.214844 140.574219 212.042969 140.828125 C 211.875 141.085938 211.679688 141.324219 211.460938 141.539062 C 211.242188 141.757812 211.003906 141.953125 210.75 142.121094 C 210.492188 142.292969 210.222656 142.4375 209.9375 142.554688 C 209.652344 142.671875 209.359375 142.761719 209.054688 142.820312 C 208.753906 142.882812 208.449219 142.910156 208.140625 142.910156 Z M 208.140625 142.910156 " fill-opacity="1" fill-rule="nonzero"/><path fill="#809f9e" d="M 107.78125 183.53125 L 107.78125 157.394531 C 106.226562 157.867188 104.632812 158.101562 103.007812 158.101562 C 101.382812 158.101562 99.789062 157.867188 98.234375 157.394531 L 98.234375 183.53125 C 98.234375 185.570312 98.355469 187.601562 98.597656 189.625 C 98.839844 191.648438 99.199219 193.652344 99.679688 195.632812 C 100.164062 197.617188 100.757812 199.5625 101.472656 201.472656 C 102.183594 203.382812 103.007812 205.242188 103.941406 207.054688 C 104.875 208.867188 105.914062 210.617188 107.058594 212.304688 C 108.199219 213.996094 109.4375 215.609375 110.773438 217.152344 C 112.109375 218.691406 113.53125 220.148438 115.039062 221.519531 C 116.546875 222.894531 118.132812 224.171875 119.792969 225.355469 L 119.792969 221.9375 C 119.792969 219.289062 120.28125 216.734375 121.261719 214.273438 C 119.136719 212.316406 117.230469 210.164062 115.554688 207.8125 C 113.875 205.460938 112.453125 202.960938 111.292969 200.316406 C 110.132812 197.671875 109.257812 194.933594 108.667969 192.105469 C 108.074219 189.277344 107.78125 186.421875 107.78125 183.53125 Z M 107.78125 183.53125 " fill-opacity="1" fill-rule="nonzero"/><g clip-path="url(#id2)"><path fill="#ad91ff" d="M 103.003906 158.105469 C 102.46875 158.101562 101.929688 158.074219 101.394531 158.023438 C 100.863281 157.96875 100.332031 157.886719 99.804688 157.78125 C 99.277344 157.675781 98.757812 157.546875 98.242188 157.390625 C 97.730469 157.230469 97.222656 157.050781 96.726562 156.84375 C 96.230469 156.640625 95.746094 156.410156 95.273438 156.15625 C 94.800781 155.902344 94.339844 155.625 93.894531 155.328125 C 93.445312 155.027344 93.015625 154.707031 92.601562 154.367188 C 92.183594 154.027344 91.789062 153.667969 91.40625 153.289062 C 91.027344 152.90625 90.667969 152.511719 90.328125 152.09375 C 89.984375 151.679688 89.664062 151.25 89.367188 150.804688 C 89.066406 150.355469 88.792969 149.898438 88.539062 149.421875 C 88.285156 148.949219 88.054688 148.464844 87.847656 147.96875 C 87.640625 147.472656 87.460938 146.96875 87.304688 146.453125 C 87.148438 145.941406 87.015625 145.421875 86.910156 144.894531 C 86.804688 144.367188 86.726562 143.835938 86.671875 143.304688 C 86.617188 142.769531 86.589844 142.234375 86.589844 141.695312 L 95.632812 141.695312 C 95.632812 142.179688 95.679688 142.660156 95.773438 143.132812 C 95.867188 143.609375 96.007812 144.070312 96.191406 144.515625 C 96.378906 144.964844 96.605469 145.386719 96.875 145.789062 C 97.144531 146.191406 97.449219 146.566406 97.792969 146.90625 C 98.132812 147.25 98.507812 147.554688 98.910156 147.824219 C 99.3125 148.09375 99.734375 148.320312 100.183594 148.503906 C 100.628906 148.6875 101.089844 148.828125 101.566406 148.921875 C 102.039062 149.019531 102.519531 149.066406 103.003906 149.066406 C 103.488281 149.066406 103.96875 149.019531 104.441406 148.921875 C 104.917969 148.828125 105.378906 148.6875 105.824219 148.503906 C 106.273438 148.320312 106.699219 148.09375 107.101562 147.824219 C 107.503906 147.554688 107.875 147.25 108.21875 146.90625 C 108.558594 146.566406 108.863281 146.191406 109.132812 145.789062 C 109.402344 145.386719 109.628906 144.964844 109.816406 144.515625 C 110 144.070312 110.140625 143.609375 110.234375 143.132812 C 110.328125 142.660156 110.375 142.179688 110.375 141.695312 L 119.425781 141.695312 C 119.425781 142.234375 119.398438 142.769531 119.34375 143.304688 C 119.289062 143.839844 119.210938 144.367188 119.105469 144.894531 C 119 145.421875 118.867188 145.941406 118.710938 146.457031 C 118.554688 146.96875 118.371094 147.476562 118.164062 147.972656 C 117.960938 148.464844 117.730469 148.953125 117.476562 149.425781 C 117.222656 149.898438 116.945312 150.359375 116.648438 150.804688 C 116.347656 151.25 116.027344 151.683594 115.6875 152.097656 C 115.34375 152.511719 114.984375 152.910156 114.605469 153.289062 C 114.222656 153.667969 113.828125 154.03125 113.410156 154.371094 C 112.996094 154.710938 112.566406 155.03125 112.117188 155.328125 C 111.671875 155.628906 111.210938 155.902344 110.738281 156.15625 C 110.261719 156.410156 109.777344 156.640625 109.28125 156.847656 C 108.785156 157.050781 108.28125 157.234375 107.765625 157.390625 C 107.253906 157.546875 106.730469 157.679688 106.203125 157.785156 C 105.679688 157.890625 105.148438 157.96875 104.613281 158.023438 C 104.078125 158.074219 103.542969 158.101562 103.003906 158.105469 Z M 103.003906 158.105469 " fill-opacity="1" fill-rule="nonzero"/></g><path fill="#809f9e" d="M 271.847656 157.773438 C 270.21875 157.773438 268.628906 157.535156 267.074219 157.058594 L 267.074219 183.203125 C 267.078125 186.367188 266.722656 189.488281 266.015625 192.574219 C 265.304688 195.65625 264.261719 198.621094 262.878906 201.464844 C 261.496094 204.3125 259.8125 206.96875 257.828125 209.429688 C 255.84375 211.894531 253.609375 214.105469 251.121094 216.0625 C 251.6875 217.980469 251.96875 219.9375 251.96875 221.9375 L 251.96875 227.085938 C 253.84375 225.945312 255.640625 224.6875 257.355469 223.316406 C 259.070312 221.945312 260.6875 220.472656 262.214844 218.890625 C 263.742188 217.3125 265.160156 215.644531 266.46875 213.882812 C 267.78125 212.121094 268.976562 210.285156 270.050781 208.371094 C 271.128906 206.457031 272.078125 204.484375 272.898438 202.449219 C 273.722656 200.414062 274.414062 198.335938 274.96875 196.210938 C 275.527344 194.085938 275.945312 191.9375 276.226562 189.761719 C 276.507812 187.582031 276.648438 185.398438 276.648438 183.203125 L 276.648438 157.058594 C 275.085938 157.539062 273.484375 157.777344 271.847656 157.773438 Z M 271.847656 157.773438 " fill-opacity="1" fill-rule="nonzero"/><g clip-path="url(#id3)"><path fill="#ad91ff" d="M 271.847656 157.773438 C 271.308594 157.773438 270.773438 157.746094 270.238281 157.691406 C 269.703125 157.640625 269.171875 157.558594 268.644531 157.453125 C 268.121094 157.347656 267.597656 157.214844 267.085938 157.058594 C 266.570312 156.902344 266.066406 156.722656 265.570312 156.515625 C 265.074219 156.308594 264.589844 156.078125 264.113281 155.824219 C 263.640625 155.570312 263.179688 155.296875 262.734375 154.996094 C 262.289062 154.699219 261.855469 154.378906 261.441406 154.039062 C 261.027344 153.695312 260.628906 153.335938 260.25 152.957031 C 259.867188 152.574219 259.507812 152.179688 259.167969 151.761719 C 258.824219 151.347656 258.507812 150.917969 258.207031 150.472656 C 257.910156 150.023438 257.632812 149.5625 257.378906 149.089844 C 257.125 148.617188 256.894531 148.132812 256.6875 147.636719 C 256.484375 147.140625 256.300781 146.636719 256.144531 146.121094 C 255.988281 145.605469 255.859375 145.085938 255.753906 144.558594 C 255.644531 144.035156 255.566406 143.503906 255.511719 142.96875 C 255.460938 142.433594 255.433594 141.898438 255.429688 141.359375 L 264.472656 141.359375 C 264.472656 141.84375 264.523438 142.324219 264.617188 142.796875 C 264.710938 143.273438 264.851562 143.734375 265.035156 144.179688 C 265.222656 144.628906 265.449219 145.050781 265.71875 145.453125 C 265.984375 145.855469 266.292969 146.230469 266.632812 146.570312 C 266.976562 146.914062 267.347656 147.21875 267.75 147.488281 C 268.152344 147.757812 268.578125 147.984375 269.027344 148.167969 C 269.472656 148.355469 269.933594 148.492188 270.410156 148.589844 C 270.882812 148.683594 271.363281 148.730469 271.847656 148.730469 C 272.332031 148.730469 272.808594 148.683594 273.285156 148.589844 C 273.761719 148.492188 274.222656 148.355469 274.667969 148.167969 C 275.117188 147.984375 275.539062 147.757812 275.941406 147.488281 C 276.34375 147.21875 276.71875 146.914062 277.058594 146.570312 C 277.402344 146.230469 277.707031 145.855469 277.976562 145.453125 C 278.246094 145.050781 278.472656 144.628906 278.65625 144.179688 C 278.84375 143.734375 278.984375 143.273438 279.078125 142.796875 C 279.171875 142.324219 279.21875 141.84375 279.21875 141.359375 L 288.261719 141.359375 C 288.261719 141.898438 288.234375 142.433594 288.179688 142.96875 C 288.125 143.503906 288.046875 144.035156 287.941406 144.558594 C 287.835938 145.085938 287.703125 145.605469 287.546875 146.121094 C 287.390625 146.636719 287.210938 147.140625 287.003906 147.636719 C 286.796875 148.132812 286.566406 148.617188 286.316406 149.089844 C 286.0625 149.5625 285.785156 150.023438 285.484375 150.472656 C 285.1875 150.917969 284.867188 151.347656 284.527344 151.761719 C 284.1875 152.179688 283.824219 152.574219 283.445312 152.957031 C 283.066406 153.335938 282.667969 153.695312 282.253906 154.039062 C 281.835938 154.378906 281.40625 154.699219 280.960938 154.996094 C 280.511719 155.296875 280.054688 155.570312 279.578125 155.824219 C 279.105469 156.078125 278.621094 156.308594 278.125 156.515625 C 277.628906 156.722656 277.121094 156.902344 276.609375 157.058594 C 276.09375 157.214844 275.574219 157.347656 275.046875 157.453125 C 274.519531 157.558594 273.988281 157.640625 273.453125 157.691406 C 272.921875 157.746094 272.382812 157.773438 271.847656 157.773438 Z M 271.847656 157.773438 " fill-opacity="1" fill-rule="nonzero"/></g><g fill="#ad91ff" fill-opacity="1"><g transform="translate(126.457027, 275.695691)"><g><path d="M 16.96875 0 L 2.609375 0 L 2.609375 -24.171875 L 16.96875 -24.171875 L 16.96875 -18.9375 L 9.140625 -18.9375 L 9.140625 -15.125 L 16.390625 -15.125 L 16.390625 -9.890625 L 9.140625 -9.890625 L 9.140625 -5.328125 L 16.96875 -5.328125 Z M 16.96875 0 "/></g></g></g><g fill="#ad91ff" fill-opacity="1"><g transform="translate(145.031428, 275.695691)"><g><path d="M 8.703125 0 L 2.234375 0 L 2.234375 -25.71875 L 8.703125 -25.71875 Z M 8.703125 0 "/></g></g></g><g fill="#ad91ff" fill-opacity="1"><g transform="translate(155.971155, 275.695691)"><g><path d="M 6.203125 -9.5625 L 0.484375 -18.734375 L 7.8125 -18.734375 L 10.65625 -13.46875 L 13.578125 -18.734375 L 20.9375 -18.734375 L 15.0625 -9.5625 L 21.15625 0 L 13.828125 0 L 10.65625 -5.6875 L 7.515625 0 L 0.171875 0 Z M 6.203125 -9.5625 "/></g></g></g><g fill="#ad91ff" fill-opacity="1"><g transform="translate(177.28875, 275.695691)"><g><path d="M 10.765625 0.328125 C 7.703125 0.328125 5.378906 -0.492188 3.796875 -2.140625 C 2.210938 -3.796875 1.421875 -6.175781 1.421875 -9.28125 C 1.421875 -12.382812 2.273438 -14.789062 3.984375 -16.5 C 5.691406 -18.207031 8.125 -19.0625 11.28125 -19.0625 C 13.445312 -19.0625 15.488281 -18.585938 17.40625 -17.640625 L 15.515625 -12.859375 C 14.722656 -13.203125 13.992188 -13.472656 13.328125 -13.671875 C 12.671875 -13.878906 11.988281 -13.984375 11.28125 -13.984375 C 10.226562 -13.984375 9.414062 -13.578125 8.84375 -12.765625 C 8.269531 -11.953125 7.984375 -10.800781 7.984375 -9.3125 C 7.984375 -6.3125 9.09375 -4.8125 11.3125 -4.8125 C 13.207031 -4.8125 15.023438 -5.363281 16.765625 -6.46875 L 16.765625 -1.328125 C 15.097656 -0.222656 13.097656 0.328125 10.765625 0.328125 Z M 10.765625 0.328125 "/></g></g></g><g fill="#ad91ff" fill-opacity="1"><g transform="translate(195.532645, 275.695691)"><g><path d="M 11.40625 -4.78125 C 12.28125 -4.78125 13.320312 -4.992188 14.53125 -5.421875 L 14.53125 -0.703125 C 13.65625 -0.335938 12.820312 -0.078125 12.03125 0.078125 C 11.25 0.242188 10.332031 0.328125 9.28125 0.328125 C 7.101562 0.328125 5.535156 -0.203125 4.578125 -1.265625 C 3.617188 -2.328125 3.140625 -3.960938 3.140625 -6.171875 L 3.140625 -13.890625 L 0.875 -13.890625 L 0.875 -16.515625 L 3.75 -18.546875 L 5.421875 -22.484375 L 9.65625 -22.484375 L 9.65625 -18.734375 L 14.25 -18.734375 L 14.25 -13.890625 L 9.65625 -13.890625 L 9.65625 -6.59375 C 9.65625 -5.382812 10.238281 -4.78125 11.40625 -4.78125 Z M 11.40625 -4.78125 "/></g></g></g><g fill="#ad91ff" fill-opacity="1"><g transform="translate(211.099447, 275.695691)"><g><path d="M 13.546875 -19.0625 C 14.109375 -19.0625 14.640625 -19.019531 15.140625 -18.9375 L 15.515625 -18.859375 L 14.921875 -12.765625 C 14.398438 -12.898438 13.671875 -12.96875 12.734375 -12.96875 C 11.316406 -12.96875 10.289062 -12.644531 9.65625 -12 C 9.019531 -11.351562 8.703125 -10.421875 8.703125 -9.203125 L 8.703125 0 L 2.234375 0 L 2.234375 -18.734375 L 7.046875 -18.734375 L 8.046875 -15.734375 L 8.359375 -15.734375 C 8.898438 -16.734375 9.648438 -17.535156 10.609375 -18.140625 C 11.578125 -18.753906 12.554688 -19.0625 13.546875 -19.0625 Z M 13.546875 -19.0625 "/></g></g></g><g fill="#ad91ff" fill-opacity="1"><g transform="translate(226.980229, 275.695691)"><g><path d="M 20.125 -9.40625 C 20.125 -6.34375 19.296875 -3.953125 17.640625 -2.234375 C 15.992188 -0.523438 13.691406 0.328125 10.734375 0.328125 C 7.890625 0.328125 5.625 -0.546875 3.9375 -2.296875 C 2.257812 -4.046875 1.421875 -6.414062 1.421875 -9.40625 C 1.421875 -12.457031 2.242188 -14.828125 3.890625 -16.515625 C 5.535156 -18.210938 7.847656 -19.0625 10.828125 -19.0625 C 12.671875 -19.0625 14.296875 -18.671875 15.703125 -17.890625 C 17.117188 -17.109375 18.207031 -15.984375 18.96875 -14.515625 C 19.738281 -13.054688 20.125 -11.351562 20.125 -9.40625 Z M 7.984375 -9.40625 C 7.984375 -7.800781 8.195312 -6.578125 8.625 -5.734375 C 9.0625 -4.890625 9.785156 -4.46875 10.796875 -4.46875 C 11.796875 -4.46875 12.503906 -4.890625 12.921875 -5.734375 C 13.335938 -6.578125 13.546875 -7.800781 13.546875 -9.40625 C 13.546875 -11 13.332031 -12.203125 12.90625 -13.015625 C 12.488281 -13.835938 11.773438 -14.25 10.765625 -14.25 C 9.773438 -14.25 9.0625 -13.84375 8.625 -13.03125 C 8.195312 -12.226562 7.984375 -11.019531 7.984375 -9.40625 Z M 7.984375 -9.40625 "/></g></g></g></svg>
